<?xml version="1.0" standalone="no"?>
<!DOCTYPE svg PUBLIC "-//W3C//DTD SVG 20010904//EN"
 "http://www.w3.org/TR/2001/REC-SVG-20010904/DTD/svg10.dtd">
<svg version="1.0" xmlns="http://www.w3.org/2000/svg"
 width="400.000000pt" height="400.000000pt" viewBox="0 0 400.000000 400.000000"
 preserveAspectRatio="xMidYMid meet">
<g transform="translate(0.000000,400.000000) scale(0.100000,-0.100000)"
fill="#000000" stroke="none">
<path d="M346 3989 c-58 -14 -152 -64 -198 -107 -234 -216 -179 -600 107 -737
39 -18 93 -37 120 -41 28 -4 763 -7 1635 -7 1243 0 1597 3 1640 13 123 28 247
125 301 235 128 263 -11 566 -294 641 -43 11 -329 14 -1662 13 -943 -1 -1626
-5 -1649 -10z"/>
<path d="M318 2431 c-144 -46 -255 -159 -298 -302 -24 -80 -21 -211 8 -285 53
-140 170 -243 322 -283 33 -8 367 -12 1275 -14 l1230 -2 57 -28 c136 -67 210
-226 172 -370 -26 -101 -89 -173 -191 -219 l-48 -22 -1225 -2 c-903 -1 -1238
-4 -1275 -13 -112 -27 -234 -120 -289 -221 -80 -147 -70 -334 25 -476 57 -84
170 -160 272 -184 51 -12 2975 -8 3027 4 217 49 401 181 511 366 41 70 82 174
96 246 5 21 8 295 8 609 0 566 0 571 -23 650 -39 136 -95 227 -202 336 -82 82
-108 102 -190 142 -182 89 -24 82 -1710 84 -1421 2 -1498 1 -1552 -16z"/>
</g>
</svg>
